<svg xmlns="http://www.w3.org/2000/svg" xmlns:xlink="http://www.w3.org/1999/xlink" fill="none" version="1.1" width="290" height="290" viewBox="0 0 290 290"><g><path d="M145,0C64.9187,0,0,64.9187,0,145C0,225.081,64.9187,290,145,290C225.081,290,290,225.081,290,145C290,64.9187,225.081,0,145,0ZM188.142,91.1764L207.461,86L237.695,198.837L218.377,204.013L188.142,91.1764ZM125.688,144.99L66.6526,86.0046L66.6423,86.0046L52.0104,100.619L96.434,144.99L52,189.362L66.632,203.976L125.688,144.99ZM128,184.005L190,184.005L190,204.005L128,204.005L128,184.005Z" fill-rule="evenodd" fill="#000000" fill-opacity="1"/></g></svg>